<svg width="206" height="273" viewBox="0 0 206 273" fill="none" xmlns="http://www.w3.org/2000/svg">
<path d="M88.1128 28.0424C96.7382 21.8434 108.358 21.8434 116.984 28.0424L181.058 74.0923C187.524 78.7394 191.358 86.2152 191.358 94.178V196.464C191.358 204.427 187.524 211.903 181.058 216.55L116.984 262.6C108.358 268.799 96.7382 268.799 88.1128 262.6L24.0383 216.55C17.5723 211.903 13.7389 204.427 13.7389 196.464V94.178C13.7389 86.2152 17.5723 78.7394 24.0383 74.0923L88.1128 28.0424Z" fill="#0C3855"/>
<g style="mix-blend-mode:color">
<path d="M88.1128 28.0425C96.7382 21.8435 108.358 21.8435 116.984 28.0425L181.058 74.0924C187.524 78.7395 191.358 86.2153 191.358 94.178V196.464C191.358 204.427 187.524 211.903 181.058 216.55L116.984 262.6C108.358 268.799 96.7382 268.799 88.1128 262.6L24.0383 216.55C17.5723 211.903 13.7389 204.427 13.7389 196.464V94.178C13.7389 86.2153 17.5723 78.7395 24.0383 74.0924L88.1128 28.0425Z" fill="#FEBDA3"/>
</g>
<path d="M88.1128 10.3746C96.7382 4.17565 108.358 4.17566 116.984 10.3746L181.058 56.4245C187.524 61.0716 191.358 68.5474 191.358 76.5102V178.797C191.358 186.759 187.524 194.235 181.058 198.882L116.984 244.932C108.358 251.131 96.7382 251.131 88.1128 244.932L24.0383 198.882C17.5723 194.235 13.7389 186.759 13.7389 178.797V76.5102C13.7389 68.5474 17.5723 61.0716 24.0383 56.4245L88.1128 10.3746Z" fill="url(#paint0_radial_6_1642)"/>
<path d="M88.1128 10.3746C96.7382 4.17565 108.358 4.17566 116.984 10.3746L181.058 56.4245C187.524 61.0716 191.358 68.5474 191.358 76.5102V178.797C191.358 186.759 187.524 194.235 181.058 198.882L116.984 244.932C108.358 251.131 96.7382 251.131 88.1128 244.932L24.0383 198.882C17.5723 194.235 13.7389 186.759 13.7389 178.797V76.5102C13.7389 68.5474 17.5723 61.0716 24.0383 56.4245L88.1128 10.3746Z" fill="white" fill-opacity="0.1" style="mix-blend-mode:color-dodge"/>
<path d="M88.1116 38.2114C96.7369 32.0124 108.357 32.0124 116.982 38.2114L161.691 70.343C168.157 74.9901 171.99 82.4659 171.99 90.4286V164.878C171.99 172.841 168.157 180.317 161.691 184.964L116.982 217.096C108.357 223.295 96.7369 223.295 88.1116 217.096L43.4032 184.964C36.9372 180.317 33.1038 172.841 33.1038 164.878V90.4286C33.1038 82.4659 36.9372 74.9901 43.4032 70.343L88.1116 38.2114Z" fill="white" fill-opacity="0.2" style="mix-blend-mode:screen"/>
<path d="M97.5814 89.3294C99.3897 85.5399 104.784 85.5399 106.592 89.3294L114.527 105.958C115.254 107.483 116.704 108.536 118.38 108.757L136.646 111.165C140.809 111.713 142.476 116.844 139.43 119.734L126.068 132.419C124.842 133.582 124.289 135.287 124.596 136.948L127.951 155.065C128.715 159.193 124.351 162.364 120.661 160.361L104.468 151.572C102.983 150.766 101.191 150.766 99.7055 151.572L83.5125 160.361C79.8221 162.364 75.4582 159.193 76.2227 155.065L79.5773 136.948C79.8849 135.287 79.3311 133.582 78.1056 132.419L64.7431 119.734C61.6979 116.844 63.3648 111.713 67.5276 111.165L85.7939 108.757C87.4692 108.536 88.9191 107.483 89.6468 105.958L97.5814 89.3294Z" fill="#124344"/>
<g style="mix-blend-mode:soft-light">
<path d="M102.549 5.72641C107.611 5.72614 112.673 7.27526 116.986 10.3748L181.06 56.4247C185.775 59.8138 189.089 64.7084 190.538 70.1981L168.611 76.9891C167.25 74.9208 165.51 73.0881 163.446 71.6043L114.522 36.4432C110.945 33.8726 106.747 32.5872 102.549 32.5868V5.72641Z" fill="white"/>
</g>
<g style="mix-blend-mode:multiply" opacity="0.3">
<path d="M33.1744 168.721C33.6646 174.686 36.7424 180.175 41.6481 183.701L90.5719 218.863C94.1507 221.435 98.3512 222.719 102.551 222.718V267.247C97.4896 267.247 92.4278 265.698 88.1149 262.598L24.0406 216.548C17.5747 211.901 13.7408 204.425 13.7408 196.462V179.025L33.1744 168.721Z" fill="#124344"/>
</g>
<g style="mix-blend-mode:color">
<path d="M88.1128 10.3746C96.7382 4.17565 108.358 4.17566 116.984 10.3746L181.058 56.4245C187.524 61.0716 191.358 68.5474 191.358 76.5102V178.797C191.358 186.759 187.524 194.235 181.058 198.882L116.984 244.932C108.358 251.131 96.7382 251.131 88.1128 244.932L24.0383 198.882C17.5723 194.235 13.7389 186.759 13.7389 178.797V76.5102C13.7389 68.5474 17.5723 61.0716 24.0383 56.4245L88.1128 10.3746Z" fill="#FEBDA3"/>
</g>
<path d="M48.6089 24.6944C49.4373 22.4557 52.6037 22.4557 53.4321 24.6944L56.3568 32.5983C56.6172 33.3022 57.1722 33.8571 57.876 34.1176L65.7799 37.0423C68.0186 37.8707 68.0186 41.037 65.7799 41.8654L57.876 44.7901C57.1722 45.0506 56.6172 45.6055 56.3568 46.3093L53.4321 54.2133C52.6037 56.452 49.4373 56.452 48.6089 54.2133L45.6842 46.3093C45.4238 45.6055 44.8688 45.0506 44.165 44.7901L36.261 41.8654C34.0224 41.037 34.0224 37.8707 36.261 37.0423L44.165 34.1176C44.8688 33.8571 45.4238 33.3022 45.6842 32.5983L48.6089 24.6944Z" fill="white"/>
<path d="M144.774 187.291C145.311 185.841 147.362 185.841 147.899 187.291L149.793 192.411C149.962 192.867 150.321 193.227 150.777 193.396L155.898 195.29C157.348 195.827 157.348 197.878 155.898 198.415L150.777 200.309C150.321 200.478 149.962 200.838 149.793 201.294L147.899 206.414C147.362 207.864 145.311 207.864 144.774 206.414L142.879 201.294C142.711 200.838 142.351 200.478 141.895 200.309L136.775 198.415C135.325 197.878 135.325 195.827 136.775 195.29L141.895 193.396C142.351 193.227 142.711 192.867 142.879 192.411L144.774 187.291Z" fill="white"/>
<defs>
<radialGradient id="paint0_radial_6_1642" cx="0" cy="0" r="1" gradientUnits="userSpaceOnUse" gradientTransform="translate(102.548) rotate(90) scale(255.307 205.096)">
<stop stop-color="#95CCEA"/>
<stop offset="1" stop-color="#104D7D"/>
</radialGradient>
</defs>
</svg>
