<svg width="267" height="273" viewBox="0 0 267 273" fill="none" xmlns="http://www.w3.org/2000/svg">
<path d="M110.84 36.9749C123.649 25.8905 142.653 25.8905 155.462 36.9749L179.463 57.7434C182.734 60.5741 186.514 62.7565 190.601 64.174L220.587 74.5744C228.777 77.4151 235.264 83.1124 239.219 90.2282L243.499 85.9476V105.765C243.572 108.221 243.378 110.718 242.898 113.219L236.912 144.387C236.096 148.636 236.096 153 236.912 157.249L241.004 178.557L243.499 176.062V193.867C243.519 194.538 243.519 195.206 243.499 195.871V197.141L243.44 197.109C242.554 210.498 233.779 222.486 220.587 227.062L190.601 237.462C186.514 238.88 182.734 241.062 179.463 243.893L155.463 264.661C142.653 275.746 123.649 275.746 110.84 264.661L86.84 243.893C83.5689 241.062 79.7889 238.88 75.7018 237.462L45.7158 227.062C32.5266 222.487 23.7533 210.505 22.8634 197.12L22.8242 197.141V196.421C22.7771 195.393 22.7766 194.357 22.8242 193.316V176.062L25.3017 178.539L29.3906 157.249C30.2064 153 30.2064 148.636 29.3906 144.387L23.4046 113.219C22.8157 110.153 22.6582 107.092 22.8932 104.106V85.9476L27.1161 90.1706C31.0733 83.0817 37.5477 77.4074 45.7158 74.5744L75.7018 64.174C79.7889 62.7565 83.5689 60.5741 86.84 57.7434L110.84 36.9749Z" fill="#0C3855"/>
<g style="mix-blend-mode:color">
<path d="M110.84 36.9749C123.649 25.8905 142.653 25.8905 155.462 36.9749L179.463 57.7434C182.734 60.5741 186.514 62.7565 190.601 64.174L220.587 74.5744C228.777 77.4151 235.264 83.1124 239.219 90.2282L243.499 85.9476V105.765C243.572 108.221 243.378 110.718 242.898 113.219L236.912 144.387C236.096 148.636 236.096 153 236.912 157.249L241.004 178.557L243.499 176.062V193.867C243.519 194.538 243.519 195.206 243.499 195.871V197.141L243.44 197.109C242.554 210.498 233.779 222.486 220.587 227.062L190.601 237.462C186.514 238.88 182.734 241.062 179.463 243.893L155.463 264.661C142.653 275.746 123.649 275.746 110.84 264.661L86.84 243.893C83.5689 241.062 79.7889 238.88 75.7018 237.462L45.7158 227.062C32.5266 222.487 23.7533 210.505 22.8634 197.12L22.8242 197.141V196.421C22.7771 195.393 22.7766 194.357 22.8242 193.316V176.062L25.3017 178.539L29.3906 157.249C30.2064 153 30.2064 148.636 29.3906 144.387L23.4046 113.219C22.8157 110.153 22.6582 107.092 22.8932 104.106V85.9476L27.1161 90.1706C31.0733 83.0817 37.5477 77.4074 45.7158 74.5744L75.7018 64.174C79.7889 62.7565 83.5689 60.5741 86.84 57.7434L110.84 36.9749Z" fill="#FEBDA3"/>
</g>
<path d="M110.839 19.3071C123.648 8.22269 142.652 8.22267 155.461 19.307L179.462 40.0755C182.733 42.9063 186.513 45.0886 190.6 46.5062L220.586 56.9066C236.59 62.4574 246.092 78.9156 242.897 95.5507L236.911 126.72C236.095 130.968 236.095 135.333 236.911 139.581L242.897 170.75C246.092 187.385 236.59 203.843 220.586 209.394L190.6 219.794C186.513 221.212 182.733 223.394 179.462 226.225L155.462 246.994C142.652 258.078 123.648 258.078 110.839 246.994L86.839 226.225C83.5678 223.394 79.7879 221.212 75.7008 219.794L45.7148 209.394C29.7109 203.843 20.2087 187.385 23.4035 170.75L29.3896 139.581C30.2054 135.333 30.2054 130.968 29.3896 126.72L23.4035 95.5508C20.2087 78.9156 29.7109 62.4574 45.7147 56.9066L75.7008 46.5062C79.7879 45.0886 83.5678 42.9063 86.839 40.0755L110.839 19.3071Z" fill="url(#paint0_radial_6_1662)"/>
<path d="M110.839 19.3071C123.648 8.22269 142.652 8.22267 155.461 19.307L179.462 40.0755C182.733 42.9063 186.513 45.0886 190.6 46.5062L220.586 56.9066C236.59 62.4574 246.092 78.9156 242.897 95.5507L236.911 126.72C236.095 130.968 236.095 135.333 236.911 139.581L242.897 170.75C246.092 187.385 236.59 203.843 220.586 209.394L190.6 219.794C186.513 221.212 182.733 223.394 179.462 226.225L155.462 246.994C142.652 258.078 123.648 258.078 110.839 246.994L86.839 226.225C83.5678 223.394 79.7879 221.212 75.7008 219.794L45.7148 209.394C29.7109 203.843 20.2087 187.385 23.4035 170.75L29.3896 139.581C30.2054 135.333 30.2054 130.968 29.3896 126.72L23.4035 95.5508C20.2087 78.9156 29.7109 62.4574 45.7147 56.9066L75.7008 46.5062C79.7879 45.0886 83.5678 42.9063 86.839 40.0755L110.839 19.3071Z" fill="white" fill-opacity="0.1" style="mix-blend-mode:color-dodge"/>
<path d="M116.965 37.8923C126.257 29.8511 140.044 29.8511 149.336 37.8923L171.625 57.1801C173.998 59.2336 176.74 60.8168 179.705 61.8452L207.553 71.5041C219.163 75.5309 226.057 87.4705 223.739 99.5384L218.18 128.485C217.588 131.567 217.588 134.733 218.18 137.815L223.739 166.762C226.057 178.83 219.163 190.77 207.553 194.796L179.705 204.455C176.74 205.484 173.998 207.067 171.625 209.12L149.336 228.408C140.044 236.449 126.257 236.449 116.965 228.408L94.6756 209.12C92.3026 207.067 89.5604 205.484 86.5954 204.455L58.7472 194.796C47.1372 190.77 40.2439 178.83 42.5616 166.762L48.1208 137.815C48.7127 134.733 48.7127 131.567 48.1208 128.485L42.5616 99.5384C40.2439 87.4705 47.1372 75.5309 58.7472 71.5041L86.5954 61.8452C89.5604 60.8168 92.3026 59.2336 94.6756 57.1801L116.965 37.8923Z" fill="white" fill-opacity="0.2" style="mix-blend-mode:screen"/>
<path d="M128.646 98.5508C130.454 94.7613 135.848 94.7613 137.656 98.5508L145.591 115.179C146.319 116.704 147.769 117.758 149.444 117.978L167.71 120.386C171.873 120.935 173.54 126.065 170.495 128.956L157.132 141.64C155.907 142.804 155.353 144.508 155.661 146.17L159.015 164.286C159.78 168.415 155.416 171.585 151.725 169.583L135.532 160.794C134.047 159.988 132.255 159.988 130.77 160.794L114.577 169.583C110.886 171.585 106.522 168.415 107.287 164.286L110.642 146.17C110.949 144.508 110.395 142.804 109.17 141.64L95.8075 128.956C92.7622 126.065 94.4291 120.935 98.5919 120.386L116.858 117.978C118.534 117.758 119.983 116.704 120.711 115.179L128.646 98.5508Z" fill="#124344"/>
<g style="mix-blend-mode:multiply" opacity="0.3">
<path d="M129.301 272.803C122.517 272.122 115.897 269.408 110.412 264.662L86.4121 243.893C83.1409 241.062 79.3609 238.88 75.2738 237.462L45.2878 227.062C32.0986 222.487 23.3253 210.505 22.4354 197.12L22.3962 197.141V196.422C22.3491 195.393 22.3486 194.357 22.3962 193.316V180.876L42.6042 164.316C40.1594 177.861 47.9379 191.196 60.971 195.717L85.5778 204.251C88.9317 205.415 92.0335 207.205 94.7179 209.528L114.413 226.571C118.748 230.323 123.949 232.527 129.301 233.184V272.803Z" fill="#124344"/>
</g>
<g style="mix-blend-mode:soft-light">
<path d="M131.963 32.9179C138.741 32.7347 145.572 35.0052 151.031 39.7295L170.726 56.7723C173.41 59.0952 176.512 60.8861 179.866 62.0494L204.473 70.584C212.302 73.2996 218.235 79.1966 221.195 86.409L242.411 82.3677C240.079 70.8471 231.856 60.9636 220.159 56.9066L190.173 46.5062C186.086 45.0887 182.306 42.9063 179.035 40.0756L155.035 19.3071C148.426 13.5883 140.168 10.8201 131.963 11.0023V32.9179Z" fill="white"/>
</g>
<g style="mix-blend-mode:color">
<path d="M110.839 19.3071C123.648 8.22269 142.652 8.22267 155.461 19.307L179.462 40.0755C182.733 42.9063 186.513 45.0886 190.6 46.5062L220.586 56.9066C236.59 62.4574 246.092 78.9156 242.897 95.5507L236.911 126.72C236.095 130.968 236.095 135.333 236.911 139.581L242.897 170.75C246.092 187.385 236.59 203.843 220.586 209.394L190.6 219.794C186.513 221.212 182.733 223.394 179.462 226.225L155.462 246.994C142.652 258.078 123.648 258.078 110.839 246.994L86.839 226.225C83.5678 223.394 79.7879 221.212 75.7008 219.794L45.7148 209.394C29.7109 203.843 20.2087 187.385 23.4035 170.75L29.3896 139.581C30.2054 135.333 30.2054 130.968 29.3896 126.72L23.4035 95.5508C20.2087 78.9156 29.7109 62.4574 45.7147 56.9066L75.7008 46.5062C79.7879 45.0886 83.5678 42.9063 86.839 40.0755L110.839 19.3071Z" fill="#FEBDA3"/>
</g>
<path d="M73.418 30.3406C74.2464 28.102 77.4128 28.1019 78.2411 30.3406L81.1659 38.2446C81.4263 38.9484 81.9812 39.5034 82.6851 39.7638L90.589 42.6885C92.8277 43.5169 92.8277 46.6833 90.589 47.5117L82.6851 50.4364C81.9812 50.6968 81.4263 51.2518 81.1659 51.9556L78.2411 59.8595C77.4128 62.0982 74.2464 62.0982 73.418 59.8595L70.4933 51.9556C70.2328 51.2518 69.6779 50.6968 68.9741 50.4364L61.0701 47.5117C58.8314 46.6833 58.8314 43.5169 61.0701 42.6885L68.9741 39.7638C69.6779 39.5034 70.2328 38.9484 70.4933 38.2446L73.418 30.3406Z" fill="white"/>
<path d="M190.828 189.644C191.365 188.194 193.416 188.194 193.952 189.644L195.847 194.764C196.016 195.22 196.375 195.58 196.831 195.749L201.952 197.643C203.402 198.18 203.402 200.231 201.952 200.768L196.831 202.662C196.375 202.831 196.016 203.191 195.847 203.647L193.952 208.767C193.416 210.217 191.365 210.217 190.828 208.767L188.933 203.647C188.765 203.191 188.405 202.831 187.949 202.662L182.829 200.768C181.379 200.231 181.379 198.18 182.829 197.643L187.949 195.749C188.405 195.58 188.765 195.22 188.933 194.764L190.828 189.644Z" fill="white"/>
<defs>
<radialGradient id="paint0_radial_6_1662" cx="0" cy="0" r="1" gradientUnits="userSpaceOnUse" gradientTransform="translate(133.15) rotate(90) scale(266.301)">
<stop stop-color="#95CCEA"/>
<stop offset="1" stop-color="#104D7D"/>
</radialGradient>
</defs>
</svg>
