<svg width="218" height="224" viewBox="0 0 218 224" fill="none" xmlns="http://www.w3.org/2000/svg">
<path d="M97.4673 23.0603C104.363 19.6607 112.447 19.6607 119.343 23.0603L181.882 53.8934C187.887 56.8539 192.435 62.1222 194.488 68.4948L210.553 118.367C211.342 120.818 211.744 123.376 211.744 125.951V141.833C211.744 147.34 209.907 152.689 206.523 157.034L161.823 214.418C157.136 220.434 149.936 223.953 142.309 223.953H74.5008C66.8743 223.953 59.6742 220.434 54.9875 214.418L10.2872 157.034C6.90325 152.689 5.06567 147.34 5.06567 141.833V125.951C5.06567 123.376 5.46762 120.818 6.25699 118.367L22.3219 68.4948C24.3746 62.1222 28.9229 56.8539 34.9278 53.8934L97.4673 23.0603Z" fill="#0C3855"/>
<g style="mix-blend-mode:color">
<path d="M97.4673 23.0603C104.363 19.6607 112.447 19.6607 119.343 23.0603L181.882 53.8934C187.887 56.8539 192.435 62.1222 194.488 68.4948L210.553 118.367C211.342 120.818 211.744 123.376 211.744 125.951V141.833C211.744 147.34 209.907 152.689 206.523 157.034L161.823 214.418C157.136 220.434 149.936 223.953 142.309 223.953H74.5008C66.8743 223.953 59.6742 220.434 54.9875 214.418L10.2872 157.034C6.90325 152.689 5.06567 147.34 5.06567 141.833V125.951C5.06567 123.376 5.46762 120.818 6.25699 118.367L22.3219 68.4948C24.3746 62.1222 28.9229 56.8539 34.9278 53.8934L97.4673 23.0603Z" fill="#FFCB6B"/>
</g>
<path d="M97.7848 5.16842C104.567 1.90238 112.467 1.90238 119.249 5.16842L182.626 35.689C189.408 38.9551 194.333 45.1317 196.008 52.4704L211.661 121.05C213.336 128.388 211.578 136.09 206.885 141.976L163.027 196.972C158.334 202.857 151.216 206.285 143.688 206.285H73.3455C65.818 206.285 58.7002 202.857 54.0069 196.972L10.1489 141.976C5.4556 136.09 3.69764 128.388 5.37266 121.05L21.0254 52.4704C22.7004 45.1317 27.6261 38.9551 34.4081 35.689L97.7848 5.16842Z" fill="url(#paint0_radial_6_1861)"/>
<path d="M97.7848 5.16842C104.567 1.90238 112.467 1.90238 119.249 5.16842L182.626 35.689C189.408 38.9551 194.333 45.1317 196.008 52.4704L211.661 121.05C213.336 128.388 211.578 136.09 206.885 141.976L163.027 196.972C158.334 202.857 151.216 206.285 143.688 206.285H73.3455C65.818 206.285 58.7002 202.857 54.0069 196.972L10.1489 141.976C5.4556 136.09 3.69764 128.388 5.37266 121.05L21.0254 52.4704C22.7004 45.1317 27.6261 38.9551 34.4081 35.689L97.7848 5.16842Z" fill="white" fill-opacity="0.1" style="mix-blend-mode:color-dodge"/>
<path d="M97.7801 27.6063C104.562 24.3402 112.462 24.3402 119.244 27.6063L165.078 49.6787C171.86 52.9448 176.786 59.1214 178.461 66.4601L189.781 116.056C191.456 123.395 189.698 131.097 185.005 136.982L153.287 176.756C148.593 182.641 141.476 186.069 133.948 186.069H83.0762C75.5488 186.069 68.431 182.641 63.7377 176.756L32.0197 136.982C27.3264 131.097 25.5684 123.395 27.2434 116.056L38.5635 66.4601C40.2385 59.1214 45.1642 52.9448 51.9462 49.6787L97.7801 27.6063Z" fill="white" fill-opacity="0.2" style="mix-blend-mode:screen"/>
<path d="M104.009 71.1428C105.817 67.3533 111.211 67.3533 113.02 71.1428L120.954 87.771C121.682 89.2961 123.132 90.3495 124.807 90.5703L143.073 92.9782C147.236 93.5269 148.903 98.657 145.858 101.548L132.495 114.232C131.27 115.396 130.716 117.1 131.024 118.762L134.378 136.878C135.143 141.007 130.779 144.177 127.088 142.175L110.895 133.386C109.41 132.58 107.618 132.58 106.133 133.386L89.94 142.175C86.2496 144.177 81.8857 141.007 82.6502 136.878L86.0048 118.762C86.3124 117.1 85.7586 115.396 84.5331 114.232L71.1706 101.548C68.1254 98.657 69.7923 93.5269 73.9551 92.9782L92.2214 90.5703C93.8967 90.3495 95.3466 89.2961 96.0743 87.771L104.009 71.1428Z" fill="#124344"/>
<g style="mix-blend-mode:soft-light">
<path d="M193.835 46.7359C191.412 41.8792 187.423 37.9015 182.434 35.499L119.057 4.97846C115.054 3.05036 110.658 2.26057 106.338 2.60888V24.6904L107.007 25.002C111.114 24.7827 115.262 25.5876 119.057 27.4165L164.897 49.4889C167.119 50.5597 169.141 51.9435 170.915 53.5787L193.835 46.7359Z" fill="white"/>
</g>
<g style="mix-blend-mode:multiply" opacity="0.3">
<path d="M72.9624 223.899C65.9367 223.439 59.4217 220.006 55.0669 214.418L10.366 157.034C6.98429 152.689 5.14849 147.34 5.14849 141.833V130.486C5.12089 130.306 5.09328 130.126 5.06567 129.946L26.8813 124.457C27.4127 128.984 29.1933 133.333 32.1057 136.983L63.8249 176.756C66.2956 179.855 69.4427 182.273 72.9624 183.868V223.899Z" fill="#124344"/>
</g>
<g style="mix-blend-mode:color">
<path d="M97.7835 5.1683C104.565 1.90226 112.466 1.90226 119.248 5.16829L182.624 35.6889C189.406 38.955 194.332 45.1316 196.007 52.4703L211.66 121.049C213.335 128.388 211.577 136.09 206.884 141.975L163.026 196.972C158.332 202.857 151.214 206.285 143.687 206.285H73.3441C65.8167 206.285 58.6989 202.857 54.0056 196.972L10.1475 141.976C5.45426 136.09 3.6963 128.388 5.37131 121.049L21.0241 52.4703C22.6991 45.1316 27.6248 38.955 34.4068 35.6889L97.7835 5.1683Z" fill="#FFCB6B"/>
</g>
<path d="M57.4027 7.66412C58.2311 5.42544 61.3974 5.42543 62.2258 7.66412L65.1506 15.5681C65.411 16.2719 65.9659 16.8268 66.6698 17.0873L74.5737 20.012C76.8124 20.8404 76.8124 24.0068 74.5737 24.8351L66.6698 27.7599C65.9659 28.0203 65.411 28.5752 65.1506 29.2791L62.2258 37.183C61.3974 39.4217 58.2311 39.4217 57.4027 37.183L54.478 29.2791C54.2175 28.5752 53.6626 28.0203 52.9588 27.7599L45.0548 24.8351C42.8161 24.0068 42.8161 20.8404 45.0548 20.012L52.9588 17.0873C53.6626 16.8268 54.2175 16.2719 54.478 15.5681L57.4027 7.66412Z" fill="white"/>
<path d="M145.853 175.251C146.39 173.801 148.441 173.801 148.978 175.251L150.872 180.372C151.041 180.828 151.401 181.187 151.857 181.356L156.977 183.25C158.427 183.787 158.427 185.838 156.977 186.375L151.857 188.27C151.401 188.438 151.041 188.798 150.872 189.254L148.978 194.374C148.441 195.824 146.39 195.824 145.853 194.374L143.959 189.254C143.79 188.798 143.43 188.438 142.975 188.27L137.854 186.375C136.404 185.838 136.404 183.787 137.854 183.25L142.975 181.356C143.43 181.187 143.79 180.828 143.959 180.372L145.853 175.251Z" fill="white"/>
<defs>
<radialGradient id="paint0_radial_6_1861" cx="0" cy="0" r="1" gradientUnits="userSpaceOnUse" gradientTransform="translate(108.517 0.00012207) rotate(90) scale(217.031)">
<stop stop-color="#95CCEA"/>
<stop offset="1" stop-color="#104D7D"/>
</radialGradient>
</defs>
</svg>
