<svg width="206" height="273" viewBox="0 0 206 273" fill="none" xmlns="http://www.w3.org/2000/svg">
<path d="M88.1128 28.0425C96.7382 21.8435 108.358 21.8435 116.984 28.0425L181.058 74.0924C187.524 78.7395 191.358 86.2153 191.358 94.178V196.464C191.358 204.427 187.524 211.903 181.058 216.55L116.984 262.6C108.358 268.799 96.7382 268.799 88.1128 262.6L24.0383 216.55C17.5723 211.903 13.7389 204.427 13.7389 196.464V94.178C13.7389 86.2153 17.5723 78.7395 24.0383 74.0924L88.1128 28.0425Z" fill="#0C3855"/>
<g style="mix-blend-mode:color">
<path d="M88.1128 28.0425C96.7382 21.8435 108.358 21.8435 116.984 28.0425L181.058 74.0924C187.524 78.7395 191.358 86.2153 191.358 94.178V196.464C191.358 204.427 187.524 211.903 181.058 216.55L116.984 262.6C108.358 268.799 96.7382 268.799 88.1128 262.6L24.0383 216.55C17.5723 211.903 13.7389 204.427 13.7389 196.464V94.178C13.7389 86.2153 17.5723 78.7395 24.0383 74.0924L88.1128 28.0425Z" fill="#FFCB6B"/>
</g>
<path d="M88.1128 10.3746C96.7382 4.17565 108.358 4.17566 116.984 10.3746L181.058 56.4245C187.524 61.0716 191.358 68.5474 191.358 76.5102V178.797C191.358 186.759 187.524 194.235 181.058 198.882L116.984 244.932C108.358 251.131 96.7382 251.131 88.1128 244.932L24.0383 198.882C17.5723 194.235 13.7389 186.759 13.7389 178.797V76.5102C13.7389 68.5474 17.5723 61.0716 24.0383 56.4245L88.1128 10.3746Z" fill="url(#paint0_radial_6_1873)"/>
<path d="M88.1128 10.3746C96.7382 4.17565 108.358 4.17566 116.984 10.3746L181.058 56.4245C187.524 61.0716 191.358 68.5474 191.358 76.5102V178.797C191.358 186.759 187.524 194.235 181.058 198.882L116.984 244.932C108.358 251.131 96.7382 251.131 88.1128 244.932L24.0383 198.882C17.5723 194.235 13.7389 186.759 13.7389 178.797V76.5102C13.7389 68.5474 17.5723 61.0716 24.0383 56.4245L88.1128 10.3746Z" fill="white" fill-opacity="0.1" style="mix-blend-mode:color-dodge"/>
<path d="M88.1115 38.2114C96.7369 32.0124 108.357 32.0124 116.982 38.2114L161.691 70.343C168.157 74.9901 171.99 82.4659 171.99 90.4287V164.878C171.99 172.841 168.157 180.317 161.691 184.964L116.982 217.096C108.357 223.295 96.7369 223.295 88.1115 217.096L43.4032 184.964C36.9371 180.317 33.1037 172.841 33.1037 164.878V90.4287C33.1037 82.4659 36.9371 74.9901 43.4032 70.343L88.1115 38.2114Z" fill="white" fill-opacity="0.2" style="mix-blend-mode:screen"/>
<path d="M98.0446 87.557C99.8529 83.7675 105.247 83.7675 107.055 87.557L114.99 104.185C115.718 105.71 117.167 106.764 118.843 106.985L137.109 109.392C141.272 109.941 142.939 115.071 139.894 117.962L126.531 130.647C125.306 131.81 124.752 133.514 125.059 135.176L128.414 153.292C129.178 157.421 124.815 160.592 121.124 158.589L104.931 149.8C103.446 148.994 101.654 148.994 100.169 149.8L83.9757 158.589C80.2853 160.592 75.9214 157.421 76.6859 153.292L80.0405 135.176C80.3481 133.514 79.7943 131.81 78.5688 130.647L65.2063 117.962C62.1611 115.071 63.828 109.941 67.9908 109.392L86.2571 106.985C87.9324 106.764 89.3823 105.71 90.11 104.185L98.0446 87.557Z" fill="#124344"/>
<g style="mix-blend-mode:soft-light">
<path d="M102.549 5.72546C107.611 5.72519 112.673 7.27518 116.986 10.3749L181.06 56.4247C185.776 59.8138 189.089 64.7082 190.538 70.1981L168.61 76.9901C167.249 74.9219 165.51 73.0891 163.446 71.6053L114.522 36.4432C110.945 33.8725 106.747 32.5862 102.549 32.5858V5.72546Z" fill="white"/>
</g>
<g style="mix-blend-mode:multiply" opacity="0.3">
<path d="M33.1744 168.721C33.6646 174.687 36.7423 180.176 41.6481 183.702L90.5719 218.863C94.1507 221.435 98.3512 222.719 102.551 222.718V267.247C97.4897 267.247 92.4278 265.699 88.1149 262.599L24.0406 216.549C17.5747 211.902 13.741 204.426 13.7408 196.464V179.025L33.1744 168.721Z" fill="#124344"/>
</g>
<g style="mix-blend-mode:color">
<path d="M88.1128 10.3746C96.7382 4.17565 108.358 4.17566 116.984 10.3746L181.058 56.4245C187.524 61.0716 191.358 68.5474 191.358 76.5102V178.797C191.358 186.759 187.524 194.235 181.058 198.882L116.984 244.932C108.358 251.131 96.7382 251.131 88.1128 244.932L24.0383 198.882C17.5723 194.235 13.7389 186.759 13.7389 178.797V76.5102C13.7389 68.5474 17.5723 61.0716 24.0383 56.4245L88.1128 10.3746Z" fill="#FFCB6B"/>
</g>
<path d="M48.6102 24.6797C49.4386 22.4411 52.605 22.4411 53.4333 24.6797L56.3581 32.5837C56.6185 33.2875 57.1734 33.8425 57.8773 34.1029L65.7812 37.0276C68.0199 37.856 68.0199 41.0224 65.7812 41.8508L57.8773 44.7755C57.1734 45.0359 56.6185 45.5909 56.3581 46.2947L53.4333 54.1986C52.605 56.4373 49.4386 56.4373 48.6102 54.1987L45.6855 46.2947C45.425 45.5909 44.8701 45.0359 44.1663 44.7755L36.2623 41.8508C34.0236 41.0224 34.0236 37.856 36.2623 37.0276L44.1663 34.1029C44.8701 33.8425 45.425 33.2875 45.6855 32.5837L48.6102 24.6797Z" fill="white"/>
<path d="M144.775 187.277C145.312 185.826 147.363 185.826 147.9 187.277L149.794 192.397C149.963 192.853 150.323 193.212 150.779 193.381L155.899 195.276C157.349 195.812 157.349 197.864 155.899 198.4L150.779 200.295C150.323 200.464 149.963 200.823 149.794 201.279L147.9 206.399C147.363 207.849 145.312 207.849 144.775 206.399L142.881 201.279C142.712 200.823 142.352 200.464 141.896 200.295L136.776 198.4C135.326 197.864 135.326 195.812 136.776 195.276L141.896 193.381C142.352 193.212 142.712 192.853 142.881 192.397L144.775 187.277Z" fill="white"/>
<defs>
<radialGradient id="paint0_radial_6_1873" cx="0" cy="0" r="1" gradientUnits="userSpaceOnUse" gradientTransform="translate(102.548) rotate(90) scale(255.307 205.096)">
<stop stop-color="#95CCEA"/>
<stop offset="1" stop-color="#104D7D"/>
</radialGradient>
</defs>
</svg>
