<svg width="267" height="273" viewBox="0 0 267 273" fill="none" xmlns="http://www.w3.org/2000/svg">
<path d="M110.84 36.9749C123.649 25.8905 142.653 25.8905 155.462 36.9749L179.463 57.7434C182.734 60.5741 186.514 62.7565 190.601 64.174L220.587 74.5744C228.777 77.4151 235.264 83.1124 239.219 90.2282L243.499 85.9476V105.765C243.572 108.221 243.378 110.718 242.898 113.219L236.912 144.387C236.096 148.636 236.096 153 236.912 157.249L241.004 178.557L243.499 176.062V193.867C243.519 194.538 243.519 195.206 243.499 195.871V197.141L243.44 197.109C242.554 210.498 233.779 222.486 220.587 227.062L190.601 237.462C186.514 238.88 182.734 241.062 179.463 243.893L155.463 264.661C142.653 275.746 123.649 275.746 110.84 264.661L86.84 243.893C83.5689 241.062 79.7889 238.88 75.7018 237.462L45.7158 227.062C32.5266 222.487 23.7533 210.505 22.8634 197.12L22.8242 197.141V196.421C22.7771 195.393 22.7766 194.357 22.8242 193.316V176.062L25.3017 178.539L29.3906 157.249C30.2064 153 30.2064 148.636 29.3906 144.387L23.4046 113.219C22.8157 110.153 22.6582 107.092 22.8932 104.106V85.9476L27.1161 90.1706C31.0733 83.0817 37.5477 77.4074 45.7158 74.5744L75.7018 64.174C79.7889 62.7565 83.5689 60.5741 86.84 57.7434L110.84 36.9749Z" fill="#0C3855"/>
<g style="mix-blend-mode:color">
<path d="M110.84 36.9749C123.649 25.8905 142.653 25.8905 155.462 36.9749L179.463 57.7434C182.734 60.5741 186.514 62.7565 190.601 64.174L220.587 74.5744C228.777 77.4151 235.264 83.1124 239.219 90.2282L243.499 85.9476V105.765C243.572 108.221 243.378 110.718 242.898 113.219L236.912 144.387C236.096 148.636 236.096 153 236.912 157.249L241.004 178.557L243.499 176.062V193.867C243.519 194.538 243.519 195.206 243.499 195.871V197.141L243.44 197.109C242.554 210.498 233.779 222.486 220.587 227.062L190.601 237.462C186.514 238.88 182.734 241.062 179.463 243.893L155.463 264.661C142.653 275.746 123.649 275.746 110.84 264.661L86.84 243.893C83.5689 241.062 79.7889 238.88 75.7018 237.462L45.7158 227.062C32.5266 222.487 23.7533 210.505 22.8634 197.12L22.8242 197.141V196.421C22.7771 195.393 22.7766 194.357 22.8242 193.316V176.062L25.3017 178.539L29.3906 157.249C30.2064 153 30.2064 148.636 29.3906 144.387L23.4046 113.219C22.8157 110.153 22.6582 107.092 22.8932 104.106V85.9476L27.1161 90.1706C31.0733 83.0817 37.5477 77.4074 45.7158 74.5744L75.7018 64.174C79.7889 62.7565 83.5689 60.5741 86.84 57.7434L110.84 36.9749Z" fill="#FFCB6B"/>
</g>
<path d="M110.839 19.3071C123.648 8.22269 142.652 8.22267 155.461 19.307L179.462 40.0755C182.733 42.9062 186.513 45.0886 190.6 46.5062L220.586 56.9066C236.59 62.4574 246.092 78.9156 242.897 95.5507L236.911 126.72C236.095 130.968 236.095 135.333 236.911 139.581L242.897 170.75C246.092 187.385 236.59 203.843 220.586 209.394L190.6 219.794C186.513 221.212 182.733 223.394 179.462 226.225L155.462 246.994C142.652 258.078 123.648 258.078 110.839 246.994L86.839 226.225C83.5678 223.394 79.7879 221.212 75.7008 219.794L45.7148 209.394C29.7109 203.843 20.2087 187.385 23.4035 170.75L29.3895 139.581C30.2054 135.333 30.2054 130.968 29.3896 126.72L23.4035 95.5508C20.2087 78.9156 29.7109 62.4574 45.7147 56.9066L75.7008 46.5062C79.7879 45.0886 83.5678 42.9062 86.839 40.0755L110.839 19.3071Z" fill="url(#paint0_radial_6_1893)"/>
<path d="M110.839 19.3071C123.648 8.22269 142.652 8.22267 155.461 19.307L179.462 40.0755C182.733 42.9062 186.513 45.0886 190.6 46.5062L220.586 56.9066C236.59 62.4574 246.092 78.9156 242.897 95.5507L236.911 126.72C236.095 130.968 236.095 135.333 236.911 139.581L242.897 170.75C246.092 187.385 236.59 203.843 220.586 209.394L190.6 219.794C186.513 221.212 182.733 223.394 179.462 226.225L155.462 246.994C142.652 258.078 123.648 258.078 110.839 246.994L86.839 226.225C83.5678 223.394 79.7879 221.212 75.7008 219.794L45.7148 209.394C29.7109 203.843 20.2087 187.385 23.4035 170.75L29.3895 139.581C30.2054 135.333 30.2054 130.968 29.3896 126.72L23.4035 95.5508C20.2087 78.9156 29.7109 62.4574 45.7147 56.9066L75.7008 46.5062C79.7879 45.0886 83.5678 42.9062 86.839 40.0755L110.839 19.3071Z" fill="white" fill-opacity="0.1" style="mix-blend-mode:color-dodge"/>
<path d="M116.965 37.8922C126.257 29.8511 140.044 29.8511 149.336 37.8922L171.625 57.1801C173.998 59.2336 176.74 60.8168 179.705 61.8452L207.553 71.5041C219.163 75.5309 226.057 87.4704 223.739 99.5384L218.18 128.485C217.588 131.567 217.588 134.733 218.18 137.815L223.739 166.762C226.057 178.83 219.163 190.77 207.553 194.796L179.705 204.455C176.74 205.484 173.998 207.067 171.625 209.12L149.336 228.408C140.044 236.449 126.257 236.449 116.965 228.408L94.6756 209.12C92.3026 207.067 89.5604 205.484 86.5954 204.455L58.7472 194.796C47.1372 190.77 40.2439 178.83 42.5616 166.762L48.1208 137.815C48.7127 134.733 48.7127 131.567 48.1208 128.485L42.5616 99.5384C40.2439 87.4704 47.1372 75.5309 58.7472 71.5041L86.5954 61.8452C89.5604 60.8168 92.3026 59.2336 94.6756 57.1801L116.965 37.8922Z" fill="white" fill-opacity="0.2" style="mix-blend-mode:screen"/>
<path d="M128.646 98.5508C130.454 94.7612 135.848 94.7612 137.656 98.5508L145.591 115.179C146.319 116.704 147.769 117.757 149.444 117.978L167.71 120.386C171.873 120.935 173.54 126.065 170.495 128.956L157.132 141.64C155.907 142.804 155.353 144.508 155.661 146.17L159.015 164.286C159.78 168.415 155.416 171.585 151.725 169.582L135.532 160.794C134.047 159.988 132.255 159.988 130.77 160.794L114.577 169.582C110.886 171.585 106.522 168.415 107.287 164.286L110.642 146.17C110.949 144.508 110.395 142.804 109.17 141.64L95.8075 128.956C92.7622 126.065 94.4291 120.935 98.5919 120.386L116.858 117.978C118.534 117.757 119.983 116.704 120.711 115.179L128.646 98.5508Z" fill="#124344"/>
<g style="mix-blend-mode:multiply" opacity="0.3">
<path d="M129.301 272.803C122.517 272.122 115.897 269.408 110.412 264.662L86.4122 243.893C83.141 241.062 79.361 238.88 75.2739 237.462L45.2879 227.062C32.0988 222.487 23.3254 210.505 22.4356 197.12L22.3963 197.141V196.422C22.3493 195.393 22.3487 194.357 22.3963 193.316V180.876L42.6043 164.316C40.1596 177.861 47.9381 191.196 60.9711 195.717L85.5779 204.251C88.9318 205.415 92.0337 207.205 94.718 209.528L114.413 226.571C118.748 230.323 123.949 232.527 129.301 233.184V272.803Z" fill="#124344"/>
</g>
<g style="mix-blend-mode:soft-light">
<path d="M131.963 32.9178C138.741 32.7346 145.572 35.0052 151.031 39.7295L170.726 56.7723C173.41 59.0952 176.512 60.8861 179.866 62.0493L204.473 70.584C212.302 73.2996 218.235 79.1965 221.195 86.4089L242.411 82.3677C240.08 70.847 231.856 60.9635 220.159 56.9066L190.173 46.5062C186.086 45.0886 182.306 42.9062 179.035 40.0755L155.035 19.307C148.426 13.5883 140.168 10.82 131.963 11.0022V32.9178Z" fill="white"/>
</g>
<g style="mix-blend-mode:color">
<path d="M110.839 19.3071C123.648 8.22269 142.652 8.22267 155.461 19.307L179.462 40.0755C182.733 42.9062 186.513 45.0886 190.6 46.5062L220.586 56.9066C236.59 62.4574 246.092 78.9156 242.897 95.5507L236.911 126.72C236.095 130.968 236.095 135.333 236.911 139.581L242.897 170.75C246.092 187.385 236.59 203.843 220.586 209.394L190.6 219.794C186.513 221.212 182.733 223.394 179.462 226.225L155.462 246.994C142.652 258.078 123.648 258.078 110.839 246.994L86.839 226.225C83.5678 223.394 79.7879 221.212 75.7008 219.794L45.7148 209.394C29.7109 203.843 20.2087 187.385 23.4035 170.75L29.3895 139.581C30.2054 135.333 30.2054 130.968 29.3896 126.72L23.4035 95.5508C20.2087 78.9156 29.7109 62.4574 45.7147 56.9066L75.7008 46.5062C79.7879 45.0886 83.5678 42.9062 86.839 40.0755L110.839 19.3071Z" fill="#FFCB6B"/>
</g>
<path d="M73.4211 30.3262C74.2494 28.0875 77.4158 28.0875 78.2442 30.3262L81.1689 38.2302C81.4294 38.934 81.9843 39.4889 82.6881 39.7494L90.5921 42.6741C92.8308 43.5025 92.8308 46.6689 90.5921 47.4972L82.6881 50.422C81.9843 50.6824 81.4294 51.2373 81.1689 51.9412L78.2442 59.8451C77.4158 62.0838 74.2494 62.0838 73.4211 59.8451L70.4963 51.9412C70.2359 51.2373 69.681 50.6824 68.9771 50.422L61.0732 47.4973C58.8345 46.6689 58.8345 43.5025 61.0732 42.6741L68.9771 39.7494C69.681 39.4889 70.2359 38.934 70.4963 38.2302L73.4211 30.3262Z" fill="white"/>
<path d="M190.831 189.63C191.368 188.18 193.419 188.18 193.955 189.63L195.85 194.75C196.019 195.206 196.378 195.565 196.834 195.734L201.955 197.629C203.405 198.166 203.405 200.217 201.955 200.753L196.834 202.648C196.378 202.817 196.019 203.176 195.85 203.632L193.955 208.752C193.419 210.203 191.368 210.203 190.831 208.752L188.936 203.632C188.768 203.176 188.408 202.817 187.952 202.648L182.832 200.753C181.382 200.217 181.382 198.166 182.832 197.629L187.952 195.734C188.408 195.565 188.768 195.206 188.936 194.75L190.831 189.63Z" fill="white"/>
<defs>
<radialGradient id="paint0_radial_6_1893" cx="0" cy="0" r="1" gradientUnits="userSpaceOnUse" gradientTransform="translate(133.15) rotate(90) scale(266.301)">
<stop stop-color="#95CCEA"/>
<stop offset="1" stop-color="#104D7D"/>
</radialGradient>
</defs>
</svg>
