<svg width="218" height="224" viewBox="0 0 218 224" fill="none" xmlns="http://www.w3.org/2000/svg">
<path d="M97.4673 23.0603C104.363 19.6606 112.447 19.6606 119.343 23.0603L181.882 53.8934C187.887 56.8539 192.435 62.1221 194.488 68.4947L210.553 118.367C211.342 120.817 211.744 123.376 211.744 125.951V141.833C211.744 147.34 209.907 152.689 206.523 157.034L161.823 214.418C157.136 220.434 149.936 223.953 142.309 223.953H74.5008C66.8743 223.953 59.6742 220.434 54.9875 214.418L10.2872 157.034C6.90325 152.689 5.06567 147.34 5.06567 141.833V125.951C5.06567 123.376 5.46762 120.817 6.25699 118.367L22.3219 68.4947C24.3746 62.1221 28.9229 56.8539 34.9278 53.8934L97.4673 23.0603Z" fill="#0C3855"/>
<g style="mix-blend-mode:color">
<path d="M97.4673 23.0603C104.363 19.6606 112.447 19.6606 119.343 23.0603L181.882 53.8934C187.887 56.8539 192.435 62.1221 194.488 68.4947L210.553 118.367C211.342 120.817 211.744 123.376 211.744 125.951V141.833C211.744 147.34 209.907 152.689 206.523 157.034L161.823 214.418C157.136 220.434 149.936 223.953 142.309 223.953H74.5008C66.8743 223.953 59.6742 220.434 54.9875 214.418L10.2872 157.034C6.90325 152.689 5.06567 147.34 5.06567 141.833V125.951C5.06567 123.376 5.46762 120.817 6.25699 118.367L22.3219 68.4947C24.3746 62.1221 28.9229 56.8539 34.9278 53.8934L97.4673 23.0603Z" fill="#E8F7FF"/>
</g>
<path d="M97.785 5.16836C104.567 1.90232 112.467 1.90232 119.249 5.16836L182.626 35.689C189.408 38.955 194.334 45.1316 196.009 52.4703L211.661 121.05C213.336 128.388 211.578 136.09 206.885 141.976L163.027 196.972C158.334 202.857 151.216 206.285 143.688 206.285H73.3456C65.8182 206.285 58.7004 202.857 54.0071 196.972L10.149 141.976C5.45572 136.09 3.69777 128.388 5.37278 121.05L21.0255 52.4703C22.7006 45.1316 27.6262 38.955 34.4082 35.689L97.785 5.16836Z" fill="url(#paint0_radial_6_1720)"/>
<path d="M97.785 5.16836C104.567 1.90232 112.467 1.90232 119.249 5.16836L182.626 35.689C189.408 38.955 194.334 45.1316 196.009 52.4703L211.661 121.05C213.336 128.388 211.578 136.09 206.885 141.976L163.027 196.972C158.334 202.857 151.216 206.285 143.688 206.285H73.3456C65.8182 206.285 58.7004 202.857 54.0071 196.972L10.149 141.976C5.45572 136.09 3.69777 128.388 5.37278 121.05L21.0255 52.4703C22.7006 45.1316 27.6262 38.955 34.4082 35.689L97.785 5.16836Z" fill="white" fill-opacity="0.1" style="mix-blend-mode:color-dodge"/>
<path d="M97.7802 27.6063C104.562 24.3403 112.462 24.3403 119.244 27.6063L165.078 49.6788C171.86 52.9448 176.786 59.1214 178.461 66.4601L189.781 116.057C191.456 123.395 189.698 131.097 185.005 136.982L153.287 176.756C148.593 182.641 141.476 186.069 133.948 186.069H83.0764C75.5489 186.069 68.4311 182.641 63.7379 176.756L32.0198 136.982C27.3265 131.097 25.5685 123.395 27.2436 116.056L38.5636 66.4601C40.2386 59.1214 45.1643 52.9448 51.9463 49.6788L97.7802 27.6063Z" fill="white" fill-opacity="0.2" style="mix-blend-mode:screen"/>
<path d="M104.009 71.1428C105.817 67.3533 111.211 67.3533 113.019 71.1428L120.954 87.771C121.682 89.2961 123.132 90.3495 124.807 90.5703L143.073 92.9782C147.236 93.5269 148.903 98.657 145.858 101.548L132.495 114.232C131.27 115.396 130.716 117.1 131.024 118.762L134.378 136.878C135.143 141.007 130.779 144.177 127.088 142.175L110.895 133.386C109.41 132.58 107.618 132.58 106.133 133.386L89.9398 142.175C86.2495 144.177 81.8855 141.007 82.65 136.878L86.0046 118.762C86.3123 117.1 85.7585 115.396 84.5329 114.232L71.1705 101.548C68.1252 98.657 69.7921 93.5269 73.955 92.9782L92.2212 90.5703C93.8966 90.3495 95.3464 89.2961 96.0742 87.771L104.009 71.1428Z" fill="#124344"/>
<g style="mix-blend-mode:soft-light">
<path d="M193.835 46.7359C191.412 41.8792 187.423 37.9016 182.434 35.499L119.057 4.97849C115.054 3.05039 110.658 2.2606 106.338 2.60891V24.6904L107.007 25.0021C111.114 24.7827 115.262 25.5876 119.057 27.4165L164.897 49.4889C167.119 50.5598 169.141 51.9435 170.915 53.5787L193.835 46.7359Z" fill="white"/>
</g>
<g style="mix-blend-mode:multiply" opacity="0.3">
<path d="M72.9624 223.899C65.9367 223.439 59.4217 220.006 55.0669 214.418L10.366 157.034C6.98429 152.689 5.14849 147.34 5.14849 141.833V130.486C5.12089 130.306 5.09328 130.126 5.06567 129.946L26.8813 124.457C27.4127 128.984 29.1933 133.333 32.1057 136.983L63.8249 176.756C66.2956 179.855 69.4427 182.273 72.9624 183.868V223.899Z" fill="#124344"/>
</g>
<g style="mix-blend-mode:color">
<path d="M97.7835 5.1683C104.565 1.90226 112.466 1.90226 119.248 5.16829L182.624 35.6889C189.406 38.955 194.332 45.1316 196.007 52.4703L211.66 121.049C213.335 128.388 211.577 136.09 206.884 141.975L163.026 196.972C158.332 202.857 151.214 206.285 143.687 206.285H73.3441C65.8167 206.285 58.6989 202.857 54.0056 196.972L10.1475 141.976C5.45426 136.09 3.6963 128.388 5.37131 121.049L21.0241 52.4703C22.6991 45.1316 27.6248 38.955 34.4068 35.6889L97.7835 5.1683Z" fill="#E8F7FF"/>
</g>
<path d="M57.4026 8.55463C58.231 6.31594 61.3974 6.31594 62.2258 8.55462L65.1505 16.4586C65.4109 17.1624 65.9659 17.7173 66.6697 17.9778L74.5736 20.9025C76.8123 21.7309 76.8123 24.8973 74.5737 25.7256L66.6697 28.6504C65.9659 28.9108 65.4109 29.4657 65.1505 30.1696L62.2258 38.0735C61.3974 40.3122 58.231 40.3122 57.4026 38.0735L54.4779 30.1696C54.2175 29.4657 53.6625 28.9108 52.9587 28.6504L45.0547 25.7256C42.8161 24.8973 42.8161 21.7309 45.0547 20.9025L52.9587 17.9778C53.6625 17.7173 54.2175 17.1624 54.4779 16.4586L57.4026 8.55463Z" fill="white"/>
<path d="M145.853 176.142C146.39 174.692 148.441 174.692 148.978 176.142L150.872 181.262C151.041 181.718 151.401 182.078 151.857 182.246L156.977 184.141C158.427 184.678 158.427 186.729 156.977 187.265L151.857 189.16C151.401 189.329 151.041 189.688 150.872 190.144L148.978 195.264C148.441 196.715 146.39 196.715 145.853 195.264L143.959 190.144C143.79 189.688 143.43 189.329 142.975 189.16L137.854 187.265C136.404 186.729 136.404 184.678 137.854 184.141L142.975 182.246C143.43 182.078 143.79 181.718 143.959 181.262L145.853 176.142Z" fill="white"/>
<defs>
<radialGradient id="paint0_radial_6_1720" cx="0" cy="0" r="1" gradientUnits="userSpaceOnUse" gradientTransform="translate(108.517 6.10352e-05) rotate(90) scale(217.031)">
<stop stop-color="#95CCEA"/>
<stop offset="1" stop-color="#104D7D"/>
</radialGradient>
</defs>
</svg>
