<svg width="206" height="273" viewBox="0 0 206 273" fill="none" xmlns="http://www.w3.org/2000/svg">
<path d="M88.1128 28.0424C96.7382 21.8434 108.358 21.8434 116.984 28.0424L181.058 74.0923C187.524 78.7394 191.358 86.2152 191.358 94.178V196.464C191.358 204.427 187.524 211.903 181.058 216.55L116.984 262.6C108.358 268.799 96.7382 268.799 88.1128 262.6L24.0383 216.55C17.5723 211.903 13.7389 204.427 13.7389 196.464V94.178C13.7389 86.2152 17.5723 78.7394 24.0383 74.0923L88.1128 28.0424Z" fill="#0C3855"/>
<g style="mix-blend-mode:color">
<path d="M88.1128 28.0425C96.7382 21.8435 108.358 21.8435 116.984 28.0425L181.058 74.0924C187.524 78.7395 191.358 86.2153 191.358 94.178V196.464C191.358 204.427 187.524 211.903 181.058 216.55L116.984 262.6C108.358 268.799 96.7382 268.799 88.1128 262.6L24.0383 216.55C17.5723 211.903 13.7389 204.427 13.7389 196.464V94.178C13.7389 86.2153 17.5723 78.7395 24.0383 74.0924L88.1128 28.0425Z" fill="#E8F7FF"/>
</g>
<path d="M88.1128 10.3746C96.7382 4.17565 108.358 4.17566 116.984 10.3746L181.058 56.4245C187.524 61.0716 191.358 68.5474 191.358 76.5102V178.797C191.358 186.759 187.524 194.235 181.058 198.882L116.984 244.932C108.358 251.131 96.7382 251.131 88.1128 244.932L24.0383 198.882C17.5723 194.235 13.7389 186.759 13.7389 178.797V76.5102C13.7389 68.5474 17.5723 61.0716 24.0383 56.4245L88.1128 10.3746Z" fill="url(#paint0_radial_6_1732)"/>
<path d="M88.1128 10.3746C96.7382 4.17565 108.358 4.17566 116.984 10.3746L181.058 56.4245C187.524 61.0716 191.358 68.5474 191.358 76.5102V178.797C191.358 186.759 187.524 194.235 181.058 198.882L116.984 244.932C108.358 251.131 96.7382 251.131 88.1128 244.932L24.0383 198.882C17.5723 194.235 13.7389 186.759 13.7389 178.797V76.5102C13.7389 68.5474 17.5723 61.0716 24.0383 56.4245L88.1128 10.3746Z" fill="white" fill-opacity="0.1" style="mix-blend-mode:color-dodge"/>
<path d="M88.1116 38.2114C96.7369 32.0124 108.357 32.0124 116.982 38.2114L161.691 70.343C168.157 74.9901 171.99 82.4659 171.99 90.4286V164.878C171.99 172.841 168.157 180.317 161.691 184.964L116.982 217.096C108.357 223.295 96.7369 223.295 88.1116 217.096L43.4032 184.964C36.9372 180.317 33.1038 172.841 33.1038 164.878V90.4286C33.1038 82.4659 36.9372 74.9901 43.4032 70.343L88.1116 38.2114Z" fill="white" fill-opacity="0.2" style="mix-blend-mode:screen"/>
<path d="M98.0446 87.557C99.8529 83.7674 105.247 83.7674 107.055 87.557L114.99 104.185C115.718 105.71 117.168 106.764 118.843 106.984L137.109 109.392C141.272 109.941 142.939 115.071 139.894 117.962L126.531 130.647C125.306 131.81 124.752 133.514 125.059 135.176L128.414 153.292C129.179 157.421 124.815 160.592 121.124 158.589L104.931 149.8C103.446 148.994 101.654 148.994 100.169 149.8L83.9757 158.589C80.2854 160.592 75.9214 157.421 76.6859 153.292L80.0405 135.176C80.3482 133.514 79.7944 131.81 78.5688 130.647L65.2064 117.962C62.1611 115.071 63.828 109.941 67.9909 109.392L86.2571 106.984C87.9325 106.764 89.3823 105.71 90.1101 104.185L98.0446 87.557Z" fill="#124344"/>
<g style="mix-blend-mode:soft-light">
<path d="M102.549 5.72543C107.611 5.72516 112.673 7.27515 116.986 10.3748L181.06 56.4247C185.776 59.8138 189.089 64.7081 190.538 70.1981L168.61 76.9901C167.249 74.9218 165.51 73.0891 163.446 71.6053L114.522 36.4432C110.945 33.8725 106.747 32.5862 102.549 32.5858V5.72543Z" fill="white"/>
</g>
<g style="mix-blend-mode:multiply" opacity="0.3">
<path d="M33.1746 168.721C33.6647 174.687 36.7424 180.176 41.6482 183.702L90.572 218.863C94.1508 221.435 98.3514 222.719 102.552 222.718V267.247C97.4898 267.247 92.4279 265.699 88.115 262.599L24.0408 216.549C17.5748 211.902 13.7411 204.426 13.741 196.463V179.025L33.1746 168.721Z" fill="#124344"/>
</g>
<g style="mix-blend-mode:color">
<path d="M88.1128 10.3746C96.7382 4.17565 108.358 4.17566 116.984 10.3746L181.058 56.4245C187.524 61.0716 191.358 68.5474 191.358 76.5102V178.797C191.358 186.759 187.524 194.235 181.058 198.882L116.984 244.932C108.358 251.131 96.7382 251.131 88.1128 244.932L24.0383 198.882C17.5723 194.235 13.7389 186.759 13.7389 178.797V76.5102C13.7389 68.5474 17.5723 61.0716 24.0383 56.4245L88.1128 10.3746Z" fill="#E8F7FF"/>
</g>
<path d="M48.6101 25.5704C49.4385 23.3317 52.6049 23.3317 53.4333 25.5704L56.358 33.4744C56.6185 34.1782 57.1734 34.7331 57.8772 34.9936L65.7812 37.9183C68.0199 38.7467 68.0199 41.9131 65.7812 42.7415L57.8772 45.6662C57.1734 45.9266 56.6185 46.4815 56.358 47.1854L53.4333 55.0893C52.6049 57.328 49.4385 57.328 48.6101 55.0893L45.6854 47.1854C45.425 46.4815 44.8701 45.9266 44.1662 45.6662L36.2623 42.7415C34.0236 41.9131 34.0236 38.7467 36.2623 37.9183L44.1662 34.9936C44.87 34.7331 45.425 34.1782 45.6854 33.4744L48.6101 25.5704Z" fill="white"/>
<path d="M144.775 188.167C145.312 186.717 147.363 186.717 147.9 188.167L149.794 193.288C149.963 193.744 150.323 194.103 150.779 194.272L155.899 196.166C157.349 196.703 157.349 198.754 155.899 199.291L150.779 201.186C150.323 201.354 149.963 201.714 149.794 202.17L147.9 207.29C147.363 208.74 145.312 208.74 144.775 207.29L142.881 202.17C142.712 201.714 142.352 201.354 141.896 201.186L136.776 199.291C135.326 198.754 135.326 196.703 136.776 196.166L141.896 194.272C142.352 194.103 142.712 193.744 142.881 193.288L144.775 188.167Z" fill="white"/>
<defs>
<radialGradient id="paint0_radial_6_1732" cx="0" cy="0" r="1" gradientUnits="userSpaceOnUse" gradientTransform="translate(102.548) rotate(90) scale(255.307 205.096)">
<stop stop-color="#95CCEA"/>
<stop offset="1" stop-color="#104D7D"/>
</radialGradient>
</defs>
</svg>
