<svg width="267" height="273" viewBox="0 0 267 273" fill="none" xmlns="http://www.w3.org/2000/svg">
<path d="M110.84 36.9749C123.649 25.8906 142.653 25.8906 155.462 36.9749L179.462 57.7434C182.734 60.5741 186.514 62.7565 190.601 64.1741L220.587 74.5745C228.777 77.4151 235.264 83.1125 239.218 90.2282L243.499 85.9477V105.765C243.572 108.221 243.378 110.718 242.898 113.219L236.912 144.387C236.096 148.636 236.096 153.001 236.912 157.249L241.004 178.557L243.499 176.062V193.867C243.519 194.538 243.519 195.206 243.499 195.871V197.141L243.44 197.109C242.554 210.498 233.779 222.486 220.587 227.062L190.601 237.462C186.514 238.88 182.734 241.062 179.462 243.893L155.462 264.661C142.653 275.746 123.649 275.746 110.84 264.661L86.8399 243.893C83.5687 241.062 79.7888 238.88 75.7017 237.462L45.7157 227.062C32.5265 222.487 23.7532 210.505 22.8633 197.12L22.8241 197.141V196.421C22.777 195.393 22.7765 194.357 22.8241 193.316V176.062L25.3016 178.539L29.3904 157.249C30.2063 153.001 30.2063 148.636 29.3904 144.387L23.4044 113.219C22.8156 110.153 22.6581 107.093 22.8931 104.106V85.9477L27.116 90.1706C31.0732 83.0817 37.5476 77.4075 45.7156 74.5745L75.7017 64.1741C79.7887 62.7565 83.5687 60.5741 86.8399 57.7434L110.84 36.9749Z" fill="#124344"/>
<path d="M110.839 19.3071C123.648 8.22269 142.652 8.22267 155.461 19.307L179.462 40.0755C182.733 42.9062 186.513 45.0886 190.6 46.5062L220.586 56.9066C236.59 62.4574 246.092 78.9156 242.897 95.5507L236.911 126.72C236.095 130.968 236.095 135.333 236.911 139.581L242.897 170.75C246.092 187.385 236.59 203.843 220.586 209.394L190.6 219.794C186.513 221.212 182.733 223.394 179.462 226.225L155.462 246.994C142.652 258.078 123.648 258.078 110.839 246.994L86.839 226.225C83.5678 223.394 79.7879 221.212 75.7008 219.794L45.7148 209.394C29.7109 203.843 20.2087 187.385 23.4035 170.75L29.3895 139.581C30.2054 135.333 30.2054 130.968 29.3896 126.72L23.4035 95.5508C20.2087 78.9156 29.7109 62.4574 45.7147 56.9066L75.7008 46.5062C79.7879 45.0886 83.5678 42.9062 86.839 40.0755L110.839 19.3071Z" fill="url(#paint0_radial_6_1752)"/>
<path d="M110.839 19.3071C123.648 8.22269 142.652 8.22267 155.461 19.307L179.462 40.0755C182.733 42.9062 186.513 45.0886 190.6 46.5062L220.586 56.9066C236.59 62.4574 246.092 78.9156 242.897 95.5507L236.911 126.72C236.095 130.968 236.095 135.333 236.911 139.581L242.897 170.75C246.092 187.385 236.59 203.843 220.586 209.394L190.6 219.794C186.513 221.212 182.733 223.394 179.462 226.225L155.462 246.994C142.652 258.078 123.648 258.078 110.839 246.994L86.839 226.225C83.5678 223.394 79.7879 221.212 75.7008 219.794L45.7148 209.394C29.7109 203.843 20.2087 187.385 23.4035 170.75L29.3895 139.581C30.2054 135.333 30.2054 130.968 29.3896 126.72L23.4035 95.5508C20.2087 78.9156 29.7109 62.4574 45.7147 56.9066L75.7008 46.5062C79.7879 45.0886 83.5678 42.9062 86.839 40.0755L110.839 19.3071Z" fill="white" fill-opacity="0.1" style="mix-blend-mode:color-dodge"/>
<path d="M110.84 36.9749C123.649 25.8906 142.653 25.8906 155.462 36.9749L179.462 57.7434C182.734 60.5741 186.514 62.7565 190.601 64.1741L220.587 74.5745C228.777 77.4151 235.264 83.1125 239.218 90.2282L243.499 85.9477V105.765C243.572 108.221 243.378 110.718 242.898 113.219L236.912 144.387C236.096 148.636 236.096 153.001 236.912 157.249L241.004 178.557L243.499 176.062V193.867C243.519 194.538 243.519 195.206 243.499 195.871V197.141L243.44 197.109C242.554 210.498 233.779 222.486 220.587 227.062L190.601 237.462C186.514 238.88 182.734 241.062 179.462 243.893L155.462 264.661C142.653 275.746 123.649 275.746 110.84 264.661L86.8399 243.893C83.5687 241.062 79.7888 238.88 75.7017 237.462L45.7157 227.062C32.5265 222.487 23.7532 210.505 22.8633 197.12L22.8241 197.141V196.421C22.777 195.393 22.7765 194.357 22.8241 193.316V176.062L25.3016 178.539L29.3904 157.249C30.2063 153.001 30.2063 148.636 29.3904 144.387L23.4044 113.219C22.8156 110.153 22.6581 107.093 22.8931 104.106V85.9477L27.116 90.1706C31.0732 83.0817 37.5476 77.4075 45.7156 74.5745L75.7017 64.1741C79.7887 62.7565 83.5687 60.5741 86.8399 57.7434L110.84 36.9749Z" fill="#0C3855"/>
<g style="mix-blend-mode:color">
<path d="M110.84 36.9749C123.649 25.8906 142.653 25.8906 155.462 36.9749L179.462 57.7434C182.734 60.5741 186.514 62.7565 190.601 64.1741L220.587 74.5745C228.777 77.4151 235.264 83.1125 239.218 90.2282L243.499 85.9477V105.765C243.572 108.221 243.378 110.718 242.898 113.219L236.912 144.387C236.096 148.636 236.096 153.001 236.912 157.249L241.004 178.557L243.499 176.062V193.867C243.519 194.538 243.519 195.206 243.499 195.871V197.141L243.44 197.109C242.554 210.498 233.779 222.486 220.587 227.062L190.601 237.462C186.514 238.88 182.734 241.062 179.462 243.893L155.462 264.661C142.653 275.746 123.649 275.746 110.84 264.661L86.8399 243.893C83.5687 241.062 79.7888 238.88 75.7017 237.462L45.7157 227.062C32.5265 222.487 23.7532 210.505 22.8633 197.12L22.8241 197.141V196.421C22.777 195.393 22.7765 194.357 22.8241 193.316V176.062L25.3016 178.539L29.3904 157.249C30.2063 153.001 30.2063 148.636 29.3904 144.387L23.4044 113.219C22.8156 110.153 22.6581 107.093 22.8931 104.106V85.9477L27.116 90.1706C31.0732 83.0817 37.5476 77.4075 45.7156 74.5745L75.7017 64.1741C79.7887 62.7565 83.5687 60.5741 86.8399 57.7434L110.84 36.9749Z" fill="#E8F7FF"/>
</g>
<path d="M110.839 19.3071C123.648 8.22269 142.652 8.22267 155.461 19.307L179.462 40.0755C182.733 42.9062 186.513 45.0886 190.6 46.5062L220.586 56.9066C236.59 62.4574 246.092 78.9156 242.897 95.5507L236.911 126.72C236.095 130.968 236.095 135.333 236.911 139.581L242.897 170.75C246.092 187.385 236.59 203.843 220.586 209.394L190.6 219.794C186.513 221.212 182.733 223.394 179.462 226.225L155.462 246.994C142.652 258.078 123.648 258.078 110.839 246.994L86.839 226.225C83.5678 223.394 79.7879 221.212 75.7008 219.794L45.7148 209.394C29.7109 203.843 20.2087 187.385 23.4035 170.75L29.3895 139.581C30.2054 135.333 30.2054 130.968 29.3896 126.72L23.4035 95.5508C20.2087 78.9156 29.7109 62.4574 45.7147 56.9066L75.7008 46.5062C79.7879 45.0886 83.5678 42.9062 86.839 40.0755L110.839 19.3071Z" fill="url(#paint1_radial_6_1752)"/>
<path d="M110.839 19.3071C123.648 8.22269 142.652 8.22267 155.461 19.307L179.462 40.0755C182.733 42.9062 186.513 45.0886 190.6 46.5062L220.586 56.9066C236.59 62.4574 246.092 78.9156 242.897 95.5507L236.911 126.72C236.095 130.968 236.095 135.333 236.911 139.581L242.897 170.75C246.092 187.385 236.59 203.843 220.586 209.394L190.6 219.794C186.513 221.212 182.733 223.394 179.462 226.225L155.462 246.994C142.652 258.078 123.648 258.078 110.839 246.994L86.839 226.225C83.5678 223.394 79.7879 221.212 75.7008 219.794L45.7148 209.394C29.7109 203.843 20.2087 187.385 23.4035 170.75L29.3895 139.581C30.2054 135.333 30.2054 130.968 29.3896 126.72L23.4035 95.5508C20.2087 78.9156 29.7109 62.4574 45.7147 56.9066L75.7008 46.5062C79.7879 45.0886 83.5678 42.9062 86.839 40.0755L110.839 19.3071Z" fill="white" fill-opacity="0.1" style="mix-blend-mode:color-dodge"/>
<path d="M116.965 37.8923C126.257 29.8512 140.044 29.8512 149.336 37.8923L171.625 57.1801C173.998 59.2337 176.74 60.8169 179.705 61.8452L207.553 71.5042C219.163 75.531 226.057 87.4705 223.739 99.5384L218.18 128.485C217.588 131.567 217.588 134.733 218.18 137.815L223.739 166.762C226.057 178.83 219.163 190.77 207.553 194.796L179.705 204.455C176.74 205.484 173.998 207.067 171.625 209.12L149.336 228.408C140.044 236.449 126.257 236.449 116.965 228.408L94.6756 209.12C92.3026 207.067 89.5604 205.484 86.5954 204.455L58.7472 194.796C47.1372 190.77 40.2439 178.83 42.5616 166.762L48.1208 137.815C48.7127 134.733 48.7127 131.567 48.1208 128.485L42.5616 99.5384C40.2439 87.4705 47.1372 75.531 58.7472 71.5042L86.5954 61.8452C89.5604 60.8169 92.3026 59.2337 94.6756 57.1801L116.965 37.8923Z" fill="white" fill-opacity="0.2" style="mix-blend-mode:screen"/>
<path d="M128.646 98.5508C130.454 94.7613 135.848 94.7613 137.656 98.5508L145.591 115.179C146.319 116.704 147.769 117.758 149.444 117.978L167.71 120.386C171.873 120.935 173.54 126.065 170.495 128.956L157.132 141.64C155.907 142.804 155.353 144.508 155.661 146.17L159.015 164.286C159.78 168.415 155.416 171.585 151.725 169.583L135.532 160.794C134.047 159.988 132.255 159.988 130.77 160.794L114.577 169.583C110.886 171.585 106.522 168.415 107.287 164.286L110.642 146.17C110.949 144.508 110.395 142.804 109.17 141.64L95.8075 128.956C92.7622 126.065 94.4291 120.935 98.5919 120.386L116.858 117.978C118.534 117.758 119.983 116.704 120.711 115.179L128.646 98.5508Z" fill="#124344"/>
<g style="mix-blend-mode:multiply" opacity="0.3">
<path d="M129.301 272.803C122.517 272.122 115.897 269.408 110.412 264.662L86.4122 243.893C83.141 241.062 79.361 238.88 75.2739 237.462L45.2879 227.062C32.0988 222.487 23.3254 210.505 22.4356 197.12L22.3963 197.141V196.422C22.3493 195.393 22.3487 194.357 22.3963 193.316V180.876L42.6043 164.316C40.1596 177.861 47.9381 191.196 60.9711 195.717L85.5779 204.251C88.9318 205.415 92.0337 207.205 94.718 209.528L114.413 226.571C118.748 230.323 123.949 232.527 129.301 233.184V272.803Z" fill="#124344"/>
</g>
<g style="mix-blend-mode:soft-light">
<path d="M131.963 32.9179C138.741 32.7347 145.572 35.0052 151.031 39.7295L170.726 56.7723C173.41 59.0952 176.512 60.8861 179.866 62.0494L204.473 70.584C212.302 73.2996 218.235 79.1966 221.195 86.409L242.411 82.3678C240.079 70.8471 231.856 60.9636 220.159 56.9066L190.173 46.5062C186.086 45.0887 182.306 42.9063 179.035 40.0756L155.035 19.3071C148.426 13.5883 140.168 10.8201 131.963 11.0023V32.9179Z" fill="white"/>
</g>
<g style="mix-blend-mode:color">
<path d="M110.839 19.3071C123.648 8.22269 142.652 8.22267 155.461 19.307L179.462 40.0755C182.733 42.9062 186.513 45.0886 190.6 46.5062L220.586 56.9066C236.59 62.4574 246.092 78.9156 242.897 95.5507L236.911 126.72C236.095 130.968 236.095 135.333 236.911 139.581L242.897 170.75C246.092 187.385 236.59 203.843 220.586 209.394L190.6 219.794C186.513 221.212 182.733 223.394 179.462 226.225L155.462 246.994C142.652 258.078 123.648 258.078 110.839 246.994L86.839 226.225C83.5678 223.394 79.7879 221.212 75.7008 219.794L45.7148 209.394C29.7109 203.843 20.2087 187.385 23.4035 170.75L29.3895 139.581C30.2054 135.333 30.2054 130.968 29.3896 126.72L23.4035 95.5508C20.2087 78.9156 29.7109 62.4574 45.7147 56.9066L75.7008 46.5062C79.7879 45.0886 83.5678 42.9062 86.839 40.0755L110.839 19.3071Z" fill="#E8F7FF"/>
</g>
<path d="M73.4209 31.2167C74.2493 28.978 77.4157 28.978 78.2441 31.2167L81.1688 39.1207C81.4292 39.8245 81.9842 40.3794 82.688 40.6399L90.592 43.5646C92.8306 44.393 92.8306 47.5593 90.592 48.3877L82.688 51.3124C81.9842 51.5729 81.4292 52.1278 81.1688 52.8317L78.2441 60.7356C77.4157 62.9743 74.2493 62.9743 73.4209 60.7356L70.4962 52.8317C70.2358 52.1278 69.6808 51.5729 68.977 51.3124L61.0731 48.3877C58.8344 47.5593 58.8344 44.393 61.0731 43.5646L68.977 40.6399C69.6808 40.3794 70.2358 39.8245 70.4962 39.1207L73.4209 31.2167Z" fill="white"/>
<path d="M190.831 190.52C191.368 189.07 193.419 189.07 193.955 190.52L195.85 195.641C196.019 196.096 196.378 196.456 196.834 196.625L201.954 198.519C203.405 199.056 203.405 201.107 201.954 201.644L196.834 203.539C196.378 203.707 196.019 204.067 195.85 204.523L193.955 209.643C193.419 211.093 191.368 211.093 190.831 209.643L188.936 204.523C188.768 204.067 188.408 203.707 187.952 203.539L182.832 201.644C181.382 201.107 181.382 199.056 182.832 198.519L187.952 196.625C188.408 196.456 188.768 196.096 188.936 195.641L190.831 190.52Z" fill="white"/>
<defs>
<radialGradient id="paint0_radial_6_1752" cx="0" cy="0" r="1" gradientUnits="userSpaceOnUse" gradientTransform="translate(133.15) rotate(90) scale(266.301)">
<stop stop-color="#95CCEA"/>
<stop offset="1" stop-color="#104D7D"/>
</radialGradient>
<radialGradient id="paint1_radial_6_1752" cx="0" cy="0" r="1" gradientUnits="userSpaceOnUse" gradientTransform="translate(133.15) rotate(90) scale(266.301)">
<stop stop-color="#95CCEA"/>
<stop offset="1" stop-color="#104D7D"/>
</radialGradient>
</defs>
</svg>
